<svg id="icons" enable-background="new 0 0 64 64" height="98.967px" viewBox="0 0 64 64" width="98.967px" xmlns="http://www.w3.org/2000/svg"><g><g><path d="m39.672 27.118c.78.78.78 2.05 0 2.83l-3.54 3.54-2.83 2.82-3.54 3.539c-.779.78-2.04.78-2.819 0-.79-.779-.79-2.05 0-2.83l.02-.01 9.75-9.76.13-.13c.779-.779 2.049-.779 2.829.001z" fill="#656d78"/></g><g><path d="m36.742 26.498c0 .25-.01.5-.03.75l-9.75 9.76-.03-.029c-.229.01-.46.02-.689.02-5.8 0-10.5-4.7-10.5-10.5s4.7-10.5 10.5-10.5 10.499 4.699 10.499 10.499z" fill="#e6e9ed"/></g><g><path d="m41.742 39.088v5.65h-.01l-8.43-8.429 2.83-2.821 5.6 5.6z" fill="#ccd1d9"/></g><g><path d="m47.736 61.002h-6.996c-.553 0-1-.447-1-1s.447-1 1-1h6.996c.553 0 1 .447 1 1s-.447 1-1 1z" fill="#ccd1d9"/></g><g><path d="m47.736 52.005h-5.994c-.553 0-1-.447-1-1v-16c0-.553.447-1 1-1h5.994c.553 0 1 .447 1 1v16c0 .553-.447 1-1 1zm-4.994-2h3.994v-14h-3.994z" fill="#656d78"/></g><g><path d="m47.742 34.998v16h-6v-6.26-5.65-4.09z" fill="#656d78"/></g><g><path d="m11.752 59.988h17.99v.01 3h-24.99v-3.01z" fill="#aab2bd"/></g><g><path d="m29.742 52.998v6.99h-17.99v-8.99h.01 15.98c1.1 0 2 .891 2 2z" fill="#545c66"/></g><g><path d="m11.752 50.998v8.99h-7c-1.1 0-2-.9-2-2v-24.98c0-1.1.9-2 2-2h1 3 1c1.1 0 2 .9 2 2z" fill="#656d78"/></g><g><path d="m5.752 27.998h3v3.01h-3z" fill="#aab2bd"/></g><g><path d="m11.752 19.998v6c0 1.1-.9 2-2 2h-1-3-1c-1.1 0-2-.9-2-2v-6c0-1.1.9-2 2-2h5c1.1 0 2 .9 2 2z" fill="#656d78"/></g><g><path d="m47.736 63.998c-.553 0-1-.447-1-1v-33.997c0-.552.447-1 1-1s1 .448 1 1v33.997c0 .553-.447 1-1 1z" fill="#545c66"/></g><g><path d="m47.736 63.998h-42.982c-.553 0-1-.447-1-1s.447-1 1-1h42.982c.553 0 1 .447 1 1s-.447 1-1 1z" fill="#545c66"/></g><g><g><path d="m38.748 12.002c-.552 0-1-.447-1-1-.001-2.938 1.143-5.701 3.221-7.778s4.841-3.222 7.779-3.222c4.832 0 9.049 3.095 10.495 7.701.165.526-.128 1.088-.654 1.253-.531.166-1.09-.129-1.254-.655-1.183-3.768-4.634-6.299-8.587-6.299-2.404 0-4.665.936-6.365 2.636s-2.636 3.96-2.635 6.364c0 .552-.447 1-1 1z" fill="#ccd1d9"/></g><g><path d="m48.746 22.002c-4.832 0-9.049-3.095-10.495-7.701-.165-.526.128-1.088.654-1.253.53-.167 1.089.128 1.254.655 1.183 3.768 4.634 6.299 8.587 6.299 2.404 0 4.665-.936 6.365-2.636s2.636-3.96 2.635-6.364c0-.552.447-1 1-1 .552 0 1 .447 1 1 .001 2.938-1.143 5.701-3.221 7.778s-4.84 3.222-7.779 3.222z" fill="#ccd1d9"/></g><g><path d="m38.749 12.002c-.304 0-.604-.138-.801-.399l-1.502-2c-.331-.442-.242-1.068.199-1.4.441-.33 1.069-.242 1.4.199l1.502 2c.331.442.242 1.068-.199 1.4-.179.135-.39.2-.599.2z" fill="#ccd1d9"/></g><g><path d="m38.749 12.002c-.304 0-.604-.138-.801-.399-.331-.442-.242-1.069.199-1.4l1.998-1.5c.441-.331 1.069-.242 1.4.199.331.442.242 1.069-.199 1.4l-1.998 1.5c-.179.135-.39.2-.599.2z" fill="#ccd1d9"/></g><g><path d="m60.249 14.002c-.304 0-.604-.138-.801-.399l-1.502-2c-.331-.442-.242-1.068.199-1.4.441-.329 1.069-.243 1.4.199l1.502 2c.331.442.242 1.068-.199 1.4-.179.135-.39.2-.599.2z" fill="#ccd1d9"/></g><g><path d="m56.749 13.502c-.304 0-.604-.138-.801-.399-.331-.442-.242-1.069.199-1.4l1.998-1.5c.441-.329 1.069-.243 1.4.199s.242 1.069-.199 1.4l-1.998 1.5c-.179.135-.39.2-.599.2z" fill="#ccd1d9"/></g></g></g></svg>