<svg id="icons" enable-background="new 0 0 64 64" height="98.967px" viewBox="0 0 64 64" width="98.967px" xmlns="http://www.w3.org/2000/svg"><g><g><path d="m30.5 15h3v10.01h-3z" fill="#4a89dc"/></g><g><path d="m14.008 31.013c-.553 0-1-.447-1-1 0-3.309 2.691-6 6-6 .553 0 1 .447 1 1s-.447 1-1 1c-2.206 0-4 1.794-4 4 0 .552-.447 1-1 1z" fill="#5d9cec"/></g><g><path d="m14.008 41.011c-.553 0-1-.447-1-1v-9.998c0-.553.447-1 1-1s1 .447 1 1v9.998c0 .552-.447 1-1 1z" fill="#edab37"/></g><g><path d="m49.992 31.013c-.553 0-1-.447-1-1 0-2.206-1.794-4-4-4-.553 0-1-.447-1-1s.447-1 1-1c3.309 0 6 2.691 6 6 0 .552-.447 1-1 1z" fill="#5d9cec"/></g><g><path d="m49.992 41.011c-.553 0-1-.447-1-1v-9.998c0-.553.447-1 1-1s1 .447 1 1v9.998c0 .552-.447 1-1 1z" fill="#edab37"/></g><g><g><path d="m14.008 35.005c-.553 0-1-.447-1-1v-3.992c0-.553.447-1 1-1s1 .447 1 1v3.992c0 .553-.447 1-1 1z" fill="#5d9cec"/></g><g><path d="m49.992 38.008c-.553 0-1-.447-1-1v-6.995c0-.553.447-1 1-1s1 .447 1 1v6.995c0 .553-.447 1-1 1z" fill="#5d9cec"/></g></g><g><path d="m44.992 26.013h-25.984c-.553 0-1-.447-1-1s.447-1 1-1h25.984c.553 0 1 .447 1 1s-.447 1-1 1z" fill="#5d9cec"/></g><g><path d="m54.99 44h-45.98l5-3.99h3 29.98 3z" fill="#f6bb42"/></g><g><path d="m51.99 58c.55 0 1 .45 1 1v3c0 .55-.45 1-1 1h-8c-.55 0-1-.45-1-1v-3c0-.55.45-1 1-1z" fill="#656d78"/></g><g><path d="m20.01 58c.55 0 1 .45 1 1v3c0 .55-.45 1-1 1h-8c-.55 0-1-.45-1-1v-3c0-.55.45-1 1-1z" fill="#656d78"/></g><g><path d="m22 53h-3.99c-2.77 0-5-2.23-5-5h3.99c2.77 0 5 2.24 5 5z" fill="#fff"/></g><g><path d="m25 48.01h14c0 1.09-.29 2.12-.81 3h-12.38c-.52-.88-.81-1.91-.81-3z" fill="#fff"/></g><g><path d="m38.19 51.01c-1.04 1.79-2.971 3-5.19 3h-1.99-.01c-2.22 0-4.15-1.21-5.19-3z" fill="#fff"/></g><g><path d="m47 48h3.99c0 2.77-2.24 5-5 5h-3.99c0-2.76 2.23-5 5-5z" fill="#fff"/></g><g><path d="m38.19 51.01c.52-.88.81-1.91.81-3h-14c0 1.09.29 2.12.81 3 1.04 1.79 2.971 3 5.19 3h.01 1.99c2.22 0 4.15-1.21 5.19-3zm16.8-7.01v14h-2-10-21.98-10-2v-14zm-4 4h-3.99c-2.77 0-5 2.24-5 5h3.99c2.76 0 5-2.23 5-5zm-32.98 5h3.99c0-2.76-2.23-5-5-5h-3.99c0 2.77 2.23 5 5 5z" fill="#ffce54"/></g><g><path d="m49.99 38v2.01h-3v-5.01c0 1.66 1.34 3 3 3z" fill="#edab37"/></g><g><path d="m41.99 28.01h3c1.109 0 2 .9 2 2v4.99 5.01h-29.98v-8.01-1.99c0-1.1.891-2 2-2h2.98 4 4 4 4z" fill="#4a89dc"/></g><g><path d="m17.01 32v8.01h-3v-5.01c1.66 0 3-1.34 3-3z" fill="#edab37"/></g><g><path d="m23.99 19c0 1.1-.891 2-2 2-1.101 0-2-.9-2-2 0-1.11 2-3 2-3s2 1.89 2 3z" fill="#4a89dc"/></g><g><path d="m33.99 12v3h-.49-3-.51v-3z" fill="#e6e9ed"/></g><g><path d="m54.99 1v4h-19c-1.11 0-2 .9-2 2v5h-4v-5c0-3.32 2.68-6 6-6z" fill="#656d78"/></g><g><path d="m9.009 45.001c-.294 0-.585-.129-.782-.376-.345-.432-.274-1.062.157-1.405l5-3.99c.432-.346 1.062-.273 1.405.157.345.432.274 1.062-.157 1.405l-5 3.99c-.185.148-.404.219-.623.219z" fill="#f6bb42"/></g><g><path d="m54.991 45.001c-.219 0-.438-.071-.623-.219l-5-3.99c-.432-.344-.502-.974-.157-1.405s.974-.502 1.405-.157l5 3.99c.432.344.502.974.157 1.405-.197.247-.488.376-.782.376z" fill="#f6bb42"/></g><g><path d="m49.992 41.011h-35.984c-.553 0-1-.447-1-1s.447-1 1-1h35.984c.553 0 1 .447 1 1s-.447 1-1 1z" fill="#f6bb42"/></g><path d="m25.354 50.006c.124.35.27.689.455 1.004.209.359.463.688.739.996h10.902c.276-.308.53-.637.739-.996.186-.314.331-.654.455-1.004z" fill="#ccd1d9"/><g><path d="m25.992 36c-.553 0-1-.447-1-1v-6.985c0-.553.447-1 1-1s1 .447 1 1v6.985c0 .553-.447 1-1 1z" fill="#5d9cec"/></g><g><path d="m29.992 38.002c-.553 0-1-.447-1-1v-8.987c0-.553.447-1 1-1s1 .447 1 1v8.987c0 .553-.447 1-1 1z" fill="#5d9cec"/></g><g><path d="m33.992 32.997c-.553 0-1-.447-1-1v-3.982c0-.553.447-1 1-1s1 .447 1 1v3.982c0 .553-.447 1-1 1z" fill="#5d9cec"/></g><g><path d="m37.992 34.999c-.553 0-1-.447-1-1v-5.984c0-.553.447-1 1-1s1 .447 1 1v5.984c0 .553-.447 1-1 1z" fill="#5d9cec"/></g><g><path d="m41.992 30.995c-.553 0-1-.447-1-1v-1.98c0-.553.447-1 1-1s1 .447 1 1v1.98c0 .553-.447 1-1 1z" fill="#5d9cec"/></g><g><path d="m21.992 30.995c-.553 0-1-.447-1-1v-1.98c0-.553.447-1 1-1s1 .447 1 1v1.98c0 .553-.447 1-1 1z" fill="#5d9cec"/></g><g><path d="m41.021 17.999c-.553 0-1.005-.447-1.005-1s.442-1 .994-1h.011c.552 0 1 .447 1 1s-.449 1-1 1z" fill="#4a89dc"/></g><g><path d="m38.021 21.999c-.553 0-1.005-.447-1.005-1s.442-1 .994-1h.011c.552 0 1 .447 1 1s-.449 1-1 1z" fill="#4a89dc"/></g><g><path d="m26.024 14.001c-.553 0-1.005-.447-1.005-1s.442-1 .994-1h.011c.552 0 1 .447 1 1s-.448 1-1 1z" fill="#4a89dc"/></g><g><path d="m44.99 25.01c2.77 0 5 2.24 5 5v7.99c-1.66 0-3-1.34-3-3v-4.99c0-1.1-.891-2-2-2h-3-4-4-4-4-4-2.98c-1.109 0-2 .9-2 2v1.99c0 1.66-1.34 3-3 3v-4.99c0-2.76 2.23-5 5-5h11.49 3z" fill="#5d9cec"/></g><g><path d="m54.992 59.001h-45.984c-.553 0-1-.447-1-1v-14c0-.553.447-1 1-1h45.984c.553 0 1 .447 1 1v14c0 .553-.447 1-1 1zm-44.984-2h43.984v-12h-43.984z" fill="#ffce54"/></g></g></svg>