<svg id="icons" enable-background="new 0 0 64 64" height="98.967px" viewBox="0 0 64 64" width="98.967px" xmlns="http://www.w3.org/2000/svg"><g><g><path d="m49 17.249h-5c-.553 0-1-.448-1-1s.447-1 1-1h5c.553 0 1 .448 1 1s-.447 1-1 1z" fill="#e6e9ed"/></g><g><path d="m51 19.249c-.553 0-1-.448-1-1 0-.551-.449-1-1-1-.553 0-1-.448-1-1s.447-1 1-1c1.654 0 3 1.346 3 3 0 .552-.447 1-1 1z" fill="#e6e9ed"/></g><g><path d="m53 30.255c-1.654 0-3-1.346-3-3.001 0-.552.447-1 1-1s1 .448 1 1 .447 1.001 1 1.001c.551 0 1-.449 1-1.001s.447-1 1-1 1 .448 1 1c0 1.655-1.346 3.001-3 3.001z" fill="#e6e9ed"/></g><g><path d="m61 30.255c-1.654 0-3-1.346-3-3.001 0-.552.447-1 1-1s1 .448 1 1 .447 1.001 1 1.001 1 .448 1 1-.447 1-1 1z" fill="#e6e9ed"/></g><g><path d="m59 19.246c-.553 0-1-.448-1-1 0-.551-.447-1-1-1-.551 0-1 .449-1 1 0 .552-.447 1-1 1s-1-.448-1-1c0-1.654 1.346-3 3-3s3 1.346 3 3c0 .552-.447 1-1 1z" fill="#e6e9ed"/></g><g><path d="m51 28.254c-.553 0-1-.448-1-1v-9.005c0-.552.447-1 1-1s1 .448 1 1v9.005c0 .552-.447 1-1 1z" fill="#e6e9ed"/></g><g><path d="m55 28.254c-.553 0-1-.448-1-1v-9.008c0-.552.447-1 1-1s1 .448 1 1v9.008c0 .552-.447 1-1 1z" fill="#e6e9ed"/></g><g><path d="m59 28.254c-.553 0-1-.448-1-1v-9.008c0-.552.447-1 1-1s1 .448 1 1v9.008c0 .552-.447 1-1 1z" fill="#e6e9ed"/></g><path d="m61 28.255c-.553 0-1 .448-1 1s.447 1 1 1h3v-2z" fill="#e6e9ed"/><g><path d="m44 19.249h-6c-.553 0-1-.448-1-1v-4c0-.552.447-1 1-1h6c.553 0 1 .448 1 1v4c0 .552-.447 1-1 1zm-5-2h4v-2h-4z" fill="#4a89dc"/></g><g><g><path d="m44 16.251v2h-6v-4h6z" fill="#4a89dc"/></g><g><path d="m30 19.251h5.199c-1.039 1.79-2.98 3-5.199 3-3.311 0-6-2.69-6-6 0-3.32 2.689-6 6-6 2.219 0 4.16 1.2 5.199 3h-5.199c-1.65 0-3 1.34-3 3s1.35 3 3 3z" fill="#e6e9ed"/></g><g><path d="m38 18.251v1h-2.801-5.199c-1.65 0-3-1.34-3-3s1.35-3 3-3h5.199 2.801v1z" fill="#5d9cec"/></g></g><g><path d="m30.002 23.249c-3.859 0-7-3.14-7-7s3.141-7 7-7c2.49 0 4.813 1.34 6.061 3.497.277.478.113 1.09-.365 1.367-.48.274-1.09.112-1.365-.365-.893-1.542-2.553-2.499-4.33-2.499-2.758 0-5 2.243-5 5s2.242 5 5 5c1.779 0 3.438-.958 4.33-2.5.275-.479.885-.644 1.367-.365.477.277.641.888.363 1.366-1.249 2.159-3.571 3.499-6.061 3.499z" fill="#e6e9ed"/></g><g><path d="m30.002 20.249c-2.207 0-4-1.794-4-4s1.793-4 4-4c.553 0 1 .448 1 1s-.447 1-1 1c-1.104 0-2 .897-2 2s.896 2 2 2c.553 0 1 .448 1 1s-.447 1-1 1z" fill="#5d9cec"/></g><g><path d="m38 20.249h-7.998c-.553 0-1-.448-1-1s.447-1 1-1h7.998c.553 0 1 .448 1 1s-.447 1-1 1z" fill="#5d9cec"/></g><g><path d="m38 14.249h-7.998c-.553 0-1-.448-1-1s.447-1 1-1h7.998c.553 0 1 .448 1 1s-.447 1-1 1z" fill="#5d9cec"/></g><g><path d="m38 20.249c-.553 0-1-.448-1-1v-6c0-.552.447-1 1-1s1 .448 1 1v6c0 .552-.447 1-1 1z" fill="#5d9cec"/></g><g><g><path d="m17.014 19.242c-.553 0-1-.448-1-1v-3.998c0-.552.447-1 1-1s1 .448 1 1v3.998c0 .552-.448 1-1 1z" fill="#e6e9ed"/></g><g><path d="m18.014 17.244h-2c-.553 0-1-.448-1-1s.447-1 1-1h2c.553 0 1 .448 1 1s-.448 1-1 1z" fill="#e6e9ed"/></g></g><g><path d="m13.029 22.251c-.553 0-1.004-.448-1.004-1s.441-1 .994-1h.01c.553 0 1 .448 1 1s-.447 1-1 1z" fill="#e6e9ed"/></g><g><path d="m19.031 24.249c-.553 0-1.006-.448-1.006-1s.443-1 .994-1h.012c.551 0 1 .448 1 1s-.449 1-1 1z" fill="#e6e9ed"/></g><g><g><path d="m24 27.331v7.92l-10.99-5.031c3.019-1.34 6.83-2.58 10.99-2.889z" fill="#5d9cec"/></g><g><path d="m26 27.251c11 0 20 8 20 8h-22v-7.92c.66-.051 1.33-.08 2-.08z" fill="#5d9cec"/></g><g><path d="m62 44.257c-.553 0-1-.447-1-1 0-2.455-1.752-5.529-4.168-5.932-.543-.092-.912-.607-.82-1.152.09-.543.602-.918 1.15-.82 3.383.564 5.838 4.468 5.838 7.904 0 .553-.447 1-1 1z" fill="#545c66"/></g><g><path d="m62 46.255c-.553 0-1-.447-1-1v-1.998c0-.553.447-1 1-1s1 .447 1 1v1.998c0 .553-.447 1-1 1z" fill="#545c66"/></g><g><path d="m63 50.253c-.553 0-1-.447-1-1v-1.998h-1c-.553 0-1-.447-1-1s.447-1 1-1h2c.553 0 1 .447 1 1v2.998c0 .553-.447 1-1 1z" fill="#545c66"/></g><g><path d="m44.172 50.253h-24.346c-.553 0-1-.447-1-1s.447-1 1-1h24.346c.553 0 1 .447 1 1s-.447 1-1 1z" fill="#545c66"/></g><g><path d="m5.002 50.253c-.207 0-.418-.064-.598-.199l-4.004-3c-.443-.332-.533-.957-.201-1.4.33-.441.957-.531 1.4-.199l4.004 3c.441.33.531.957.199 1.398-.195.261-.495.4-.8.4z" fill="#545c66"/></g><g><path d="m1 47.253c-.553 0-1-.447-1-1v-12.004c0-.553.447-1 1-1s1 .447 1 1v12.004c0 .553-.447 1-1 1z" fill="#545c66"/></g><g><path d="m6.002 35.249h-5.002c-.553 0-1-.447-1-1s.447-1 1-1h5.002c.553 0 1 .447 1 1s-.447 1-1 1z" fill="#545c66"/></g><g><path d="m46 36.251c-.234 0-.473-.084-.662-.252-.088-.078-8.863-7.752-19.344-7.752-10.539 0-19.291 6.723-19.379 6.791-.435.338-1.064.262-1.402-.174-.34-.436-.262-1.064.174-1.404.379-.293 9.389-7.213 20.607-7.213 11.256 0 20.293 7.92 20.672 8.256.412.367.449.998.082 1.412-.197.221-.471.336-.748.336z" fill="#545c66"/></g><g><path d="m57.002 37.339c-.033 0-.066-.002-.1-.006l-10.998-1.084c-.551-.053-.953-.543-.898-1.092.055-.551.543-.949 1.094-.898l10.998 1.084c.551.055.953.545.898 1.094-.051.515-.486.902-.994.902z" fill="#545c66"/></g><g><path d="m7.174 50.253h-2.17c-.553 0-1-.447-1-1s.447-1 1-1h2.17c.553 0 1 .447 1 1s-.447 1-1 1z" fill="#545c66"/></g><g><path d="m63 50.253h-6.176c-.553 0-1-.447-1-1s.447-1 1-1h6.176c.553 0 1 .447 1 1s-.447 1-1 1z" fill="#545c66"/></g><g><path d="m7 47.751c0 .52.059 1.02.18 1.5h-.01-2.17l-4-3v-12h5s2.719-2.121 7.01-4.031l10.99 5.031h22l11 1.09c2.84.469 5 3.941 5 6.91v2h1v4h-6.18c.119-.48.18-.98.18-1.5 0-3.59-2.91-6.5-6.5-6.5s-6.5 2.91-6.5 6.5c0 .52.059 1.02.18 1.5h-.01-24.34-.01c.119-.48.18-.98.18-1.5 0-3.59-2.91-6.5-6.5-6.5s-6.5 2.91-6.5 6.5z" fill="#545c66"/></g><g><path d="m24.004 36.251c-.553 0-1-.447-1-1v-7.918c0-.553.447-1 1-1s1 .447 1 1v7.918c0 .553-.447 1-1 1z" fill="#545c66"/></g><path d="m61.002 43.257c-.553 0-1 .447-1 1s.447 1 1 1h1.998v-2z" fill="#434a54"/><path d="m13.5 40.751c-3.867 0-7 3.133-7 7 0 .559.064 1.098.193 1.615.721 3.09 3.5 5.385 6.807 5.385s6.084-2.295 6.807-5.385c.129-.518.193-1.057.193-1.615 0-3.867-3.135-7-7-7z" fill="#656d78"/><g><circle cx="13.5" cy="47.751" fill="#e6e9ed" r="2.5"/></g><path d="m50.5 40.751c-3.867 0-7 3.133-7 7 0 .559.064 1.098.193 1.615.721 3.09 3.5 5.385 6.807 5.385s6.084-2.295 6.807-5.385c.129-.518.193-1.057.193-1.615 0-3.867-3.135-7-7-7z" fill="#656d78"/><g><path d="m50.5 45.251c1.379 0 2.5 1.119 2.5 2.5 0 1.379-1.121 2.5-2.5 2.5-1.391 0-2.5-1.121-2.5-2.5 0-1.381 1.109-2.5 2.5-2.5z" fill="#e6e9ed"/></g></g></g></svg>