<svg id="icons" enable-background="new 0 0 64 64" height="512" viewBox="0 0 64 64" width="512" xmlns="http://www.w3.org/2000/svg"><g><path d="m10.995 62.5c0 .55.45 1 1 1h20c.55 0 1-.45 1-1v-26c0-.55-.45-1-1-1h-20c-.55 0-1 .45-1 1z" fill="#656d78"/><path d="m13.995 15.5v12h1.01 7.99 18 8 1v-12z" fill="#ed5565"/><g><path d="m46.005 4.5v7h-28.01v-7c0-1.66 1.34-3 3-3h22.01c1.65 0 3 1.35 3 3z" fill="#5d9cec"/></g><g><path d="m46.003 5.502c-.553 0-1-.447-1-1 0-1.103-.897-2-2-2-.553 0-1-.447-1-1s.447-1 1-1c2.206 0 4 1.794 4 4 0 .553-.447 1-1 1z" fill="#d3374e"/></g><g><path d="m17.997 5.5c-.553 0-1-.447-1-1 0-2.206 1.794-4 4-4 .553 0 1 .447 1 1s-.447 1-1 1c-1.103 0-2 .897-2 2 0 .553-.447 1-1 1z" fill="#d3374e"/></g><g><path d="m46.003 12.502c-.553 0-1-.447-1-1v-7c0-.553.447-1 1-1s1 .447 1 1v7c0 .553-.447 1-1 1z" fill="#d3374e"/></g><g><path d="m43.003 2.502h-22.006c-.553 0-1-.447-1-1s.447-1 1-1h22.006c.553 0 1 .447 1 1s-.447 1-1 1z" fill="#d3374e"/></g><g><path d="m17.997 12.502c-.553 0-1-.447-1-1v-7.002c0-.553.447-1 1-1s1 .447 1 1v7.002c0 .553-.447 1-1 1z" fill="#d3374e"/></g><g><path d="m53.005 61.5c0 1.1-.899 2-2 2h-12.01c-1.09 0-2-.9-2-2v-4c0 1.1.91 2 2 2h12.01c1.101 0 2-.9 2-2z" fill="#f6bb42"/></g><g><path d="m53.005 41.5v16c0 1.1-.899 2-2 2h-12.01c-1.09 0-2-.9-2-2v-16-4c0-1.1.91-2 2-2h12.01c1.101 0 2 .9 2 2z" fill="#ffce54"/></g><g><path d="m12.994 37.499h18.002v24.002h-18.002z" fill="#e6e9ed"/></g><g><g><path d="m22.996 27.5c.55 0 1 .45 1 1v3.001c0 .55-.45 1-1 1h-6.991c-.55 0-1-.45-1-1v-3.001c0-.55.45-1 1-1z" fill="#656d78"/></g><g><path d="m47.995 27.5c.55 0 1 .45 1 1v3.001c0 .55-.45 1-1 1h-7.001c-.55 0-1-.45-1-1v-3.001c0-.55.45-1 1-1z" fill="#656d78"/></g></g><g><path d="m27.976 35.5-1.481 3-.5 1h-8l-.49-1-1.49-3z" fill="#ffce54"/></g><g><path d="m16.995 19.5h4.5c.83 0 1.5.68 1.5 1.5 0 .83-.67 1.5-1.5 1.5h-1.5c-1.66 0-3-1.34-3-3z" fill="#e6e9ed"/></g><g><path d="m42.495 19.5h4.5c0 1.66-1.34 3-3 3h-1.5c-.83 0-1.5-.67-1.5-1.5 0-.82.67-1.5 1.5-1.5z" fill="#e6e9ed"/></g><g><path d="m46.005 11.5 3.99 4h-36l4-4z" fill="#da4453"/></g><g><path d="m14 16.498c-.256 0-.512-.098-.707-.293-.391-.391-.391-1.023 0-1.414l3.997-3.996c.391-.391 1.023-.391 1.414 0s.391 1.023 0 1.414l-3.997 3.996c-.195.195-.451.293-.707.293z" fill="#da4453"/></g><g><path d="m50 16.498c-.256 0-.512-.098-.707-.293l-3.997-3.996c-.391-.391-.391-1.023 0-1.414s1.023-.391 1.414 0l3.997 3.996c.391.391.391 1.023 0 1.414-.195.195-.451.293-.707.293z" fill="#da4453"/></g><g><path d="m46.003 12.502h-28.006c-.553 0-1-.447-1-1s.447-1 1-1h28.006c.553 0 1 .447 1 1s-.447 1-1 1z" fill="#da4453"/></g><g><g><path d="m17.493 47.501c-.258 0-.516-.1-.711-.297l-.988-1c-.389-.393-.385-1.026.008-1.414.394-.39 1.026-.384 1.414.008l.988 1c.389.393.385 1.026-.008 1.414-.195.193-.449.289-.703.289z" fill="#a0d468"/></g><g><path d="m17.493 47.501c-.256 0-.512-.098-.707-.293-.391-.391-.391-1.023 0-1.414l2-2c.391-.391 1.023-.391 1.414 0s.391 1.023 0 1.414l-2 2c-.195.195-.451.293-.707.293z" fill="#a0d468"/></g><g><path d="m27.484 46.501h-3.99c-.553 0-1-.447-1-1s.447-1 1-1h3.99c.553 0 1 .447 1 1s-.447 1-1 1z" fill="#ccd1d9"/></g><g><path d="m17.493 52.501c-.258 0-.516-.1-.711-.297l-.988-1c-.389-.393-.385-1.026.008-1.414.394-.391 1.026-.384 1.414.008l.988 1c.389.393.385 1.026-.008 1.414-.195.193-.449.289-.703.289z" fill="#a0d468"/></g><g><path d="m17.493 52.501c-.256 0-.512-.098-.707-.293-.391-.391-.391-1.023 0-1.414l2-2c.391-.391 1.023-.391 1.414 0s.391 1.023 0 1.414l-2 2c-.195.195-.451.293-.707.293z" fill="#a0d468"/></g><g><path d="m27.484 51.501h-3.99c-.553 0-1-.447-1-1s.447-1 1-1h3.99c.553 0 1 .447 1 1s-.447 1-1 1z" fill="#ccd1d9"/></g><g><path d="m17.493 57.499c-.258 0-.516-.1-.711-.297l-.988-1c-.389-.393-.385-1.026.008-1.414.394-.39 1.026-.384 1.414.008l.988 1c.389.393.385 1.026-.008 1.414-.195.193-.449.289-.703.289z" fill="#a0d468"/></g><g><path d="m17.493 57.499c-.256 0-.512-.098-.707-.293-.391-.391-.391-1.023 0-1.414l2-2c.391-.391 1.023-.391 1.414 0s.391 1.023 0 1.414l-2 2c-.195.195-.451.293-.707.293z" fill="#a0d468"/></g><g><path d="m27.484 56.499h-3.99c-.553 0-1-.447-1-1s.447-1 1-1h3.99c.553 0 1 .447 1 1s-.447 1-1 1z" fill="#ccd1d9"/></g></g><g><g><path d="m39.034 54.498c-.553 0-1.005-.447-1.005-1s.442-1 .994-1h.011c.552 0 1 .447 1 1s-.448 1-1 1z" fill="#f6bb42"/></g><g><path d="m42.034 57.498c-.553 0-1.005-.447-1.005-1s.442-1 .994-1h.011c.552 0 1 .447 1 1s-.448 1-1 1z" fill="#f6bb42"/></g><g><path d="m39.034 48.498c-.553 0-1.005-.447-1.005-1s.442-1 .994-1h.011c.552 0 1 .447 1 1s-.448 1-1 1z" fill="#f6bb42"/></g><g><path d="m42.034 51.498c-.553 0-1.005-.447-1.005-1s.442-1 .994-1h.011c.552 0 1 .447 1 1s-.448 1-1 1z" fill="#f6bb42"/></g><g><path d="m45.034 54.498c-.553 0-1.005-.447-1.005-1s.442-1 .994-1h.011c.552 0 1 .447 1 1s-.448 1-1 1z" fill="#f6bb42"/></g><g><path d="m48.034 57.498c-.553 0-1.005-.447-1.005-1s.442-1 .994-1h.011c.552 0 1 .447 1 1s-.448 1-1 1z" fill="#f6bb42"/></g><g><path d="m39.034 42.498c-.553 0-1.005-.447-1.005-1s.442-1 .994-1h.011c.552 0 1 .447 1 1s-.448 1-1 1z" fill="#f6bb42"/></g><g><path d="m42.034 45.498c-.553 0-1.005-.447-1.005-1s.442-1 .994-1h.011c.552 0 1 .447 1 1s-.448 1-1 1z" fill="#f6bb42"/></g><g><path d="m45.034 48.498c-.553 0-1.005-.447-1.005-1s.442-1 .994-1h.011c.552 0 1 .447 1 1s-.448 1-1 1z" fill="#f6bb42"/></g><g><path d="m48.034 51.498c-.553 0-1.005-.447-1.005-1s.442-1 .994-1h.011c.552 0 1 .447 1 1s-.448 1-1 1z" fill="#f6bb42"/></g><g><path d="m51.034 54.498c-.553 0-1.005-.447-1.005-1s.442-1 .994-1h.011c.552 0 1 .447 1 1s-.448 1-1 1z" fill="#f6bb42"/></g><g><path d="m42.034 39.498c-.553 0-1.005-.447-1.005-1s.442-1 .994-1h.011c.552 0 1 .447 1 1s-.448 1-1 1z" fill="#f6bb42"/></g><g><path d="m45.034 42.498c-.553 0-1.005-.447-1.005-1s.442-1 .994-1h.011c.552 0 1 .447 1 1s-.448 1-1 1z" fill="#f6bb42"/></g><g><path d="m48.034 45.498c-.553 0-1.005-.447-1.005-1s.442-1 .994-1h.011c.552 0 1 .447 1 1s-.448 1-1 1z" fill="#f6bb42"/></g><g><path d="m51.034 48.498c-.553 0-1.005-.447-1.005-1s.442-1 .994-1h.011c.552 0 1 .447 1 1s-.448 1-1 1z" fill="#f6bb42"/></g><g><path d="m48.034 39.498c-.553 0-1.005-.447-1.005-1s.442-1 .994-1h.011c.552 0 1 .447 1 1s-.448 1-1 1z" fill="#f6bb42"/></g><g><path d="m51.034 42.498c-.553 0-1.005-.447-1.005-1s.442-1 .994-1h.011c.552 0 1 .447 1 1s-.448 1-1 1z" fill="#f6bb42"/></g></g><g><path d="m50 28.498h-36c-.553 0-1-.447-1-1v-12c0-.553.447-1 1-1h36c.553 0 1 .447 1 1v12c0 .553-.447 1-1 1zm-35-2h34v-10h-34z" fill="#ed5565"/></g><g><path d="m37.5 24.501c0 .55-.45 1-1 1h-8.999c-.55 0-1-.45-1-1v-2c0-.55.45-1 1-1h8.999c.55 0 1 .45 1 1z" fill="#e6e9ed"/><g fill="#ccd1d9"><path d="m29.5 21.499h1v4.002h-1z"/><path d="m33.5 21.499h1v4.002h-1z"/></g></g></g></svg>