<svg id="icons" enable-background="new 0 0 64 64" height="512" viewBox="0 0 64 64" width="512" xmlns="http://www.w3.org/2000/svg"><g><g><path d="m39 19.505v3h-14v-3h7.04z" fill="#ccd1d9"/></g><g><path d="m4 28.505h35.011v19h-35.011z" fill="#5d9cec"/></g><g><path d="m53.51 36.505c.82 0 1.5.68 1.5 1.5 0 .83-.68 1.5-1.5 1.5h-9.5l-3 1v-5l3 1z" fill="#545c66"/></g><g><path d="m41.01 39.505v2 5c0 .55-.45 1-1 1h-1c-.55 0-1-.45-1-1v-17c0-.55.45-1 1-1h1c.55 0 1 .45 1 1v5 2z" fill="#656d78"/></g><g><path d="m32.04 19.505h-7.04v3h14v-3zm0-3.01h21.96c3.31 0 6 2.689 6 6v25.01h-18.99v-7l3-1h9.5c.82 0 1.5-.67 1.5-1.5 0-.82-.68-1.5-1.5-1.5h-9.5l-3-1v-7h-3-34.01v-6.01c0-3.311 2.69-6 6-6z" fill="#f5f7fa"/></g><g><path d="m39 23.498h-14c-.553 0-1-.447-1-1v-3c0-.553.447-1 1-1h14c.553 0 1 .447 1 1v3c0 .553-.447 1-1 1zm-13-2h12v-1h-12z" fill="#ccd1d9"/></g><g><path d="m32.041 20.498c-.553 0-1-.447-1-1v-3.004c0-.553.447-1 1-1s1 .447 1 1v3.004c0 .553-.447 1-1 1z" fill="#e6e9ed"/></g><g><g><path d="m30.007 43.504c-.553 0-1-.447-1-1v-3.998c0-.553.447-1 1-1s1 .447 1 1v3.998c0 .553-.447 1-1 1z" fill="#e6e9ed"/></g><g><path d="m31.007 41.506h-2c-.553 0-1-.447-1-1s.447-1 1-1h2c.553 0 1 .447 1 1s-.447 1-1 1z" fill="#e6e9ed"/></g></g><g><g><path d="m12.002 38.504c-.553 0-1-.447-1-1v-3.998c0-.553.447-1 1-1s1 .447 1 1v3.998c0 .553-.447 1-1 1z" fill="#e6e9ed"/></g><g><path d="m13.002 36.506h-2c-.553 0-1-.447-1-1s.447-1 1-1h2c.553 0 1 .447 1 1s-.447 1-1 1z" fill="#e6e9ed"/></g></g><g><path d="m23.022 35.5c-.553 0-1.005-.447-1.005-1s.442-1 .994-1h.011c.552 0 1 .447 1 1s-.448 1-1 1z" fill="#e6e9ed"/></g><g><path d="m19.032 43.502c-.553 0-1.005-.447-1.005-1s.442-1 .994-1h.011c.552 0 1 .447 1 1s-.448 1-1 1z" fill="#e6e9ed"/></g><g><path d="m60 47.505v-25.01c0-3.311-2.69-6-6-6h-21.96-22.04c-3.31 0-6 2.689-6 6v6.01 19h34.01 3zm-6-34.01c4.97 0 9 4.029 9 9v28.01h-62v-28.01c0-4.971 4.03-9 9-9z" fill="#ed5565"/></g></g></svg>