<svg id="icons" enable-background="new 0 0 64 64" height="98.967px" viewBox="0 0 64 64" width="98.967px" xmlns="http://www.w3.org/2000/svg"><g><g><g><path d="m50.473 8.578v7.99c0 2.201-1.801 4-4 4h-28c-2.201 0-4-1.799-4-4v-7.99-4c0-2.209 1.799-4 4-4h28c2.199 0 4 1.791 4 4z" fill="#ffce54"/></g><g><path d="m7.473 33.588c-1.1 0-1.99.881-2 1.99v-3.99c0-1.109.9-2 2-2h50c1.1 0 2 .891 2 2v4c0-1.109-.9-2-2-2z" fill="#545c66"/></g><g><path d="m50.473 16.568v5.01c0 2.201-1.801 4-4 4h-28c-2.201 0-4-1.799-4-4v-5.01c0 2.201 1.799 4 4 4h28c2.199 0 4-1.798 4-4z" fill="#f6bb42"/></g><g><path d="m33.473 44.578c0-4.279-3.361-7.779-7.59-7.99h15.199c-4.24.211-7.6 3.711-7.6 7.99z" fill="#ccd1d9"/></g><g><path d="m8.521 36.588c.521 8.76 7.701 15.771 16.541 15.98.129.01.27.01.41.01h16.02 3.98c6.059 0 11-4.93 11-11v-4.99h-14.57c-.131-.01-.27-.01-.41-.01s-.279 0-.41.01h-15.199c-.131-.01-.271-.01-.41-.01-.141 0-.281 0-.41.01zm-1.048-3h50c1.1 0 2 .891 2 2v5.99c0 7.74-6.27 14-14 14h-20c-11.051 0-19.99-8.93-20-19.99v-.01c.009-1.109.9-1.99 2-1.99z" fill="#656d78"/></g><g><circle cx="41.482" cy="44.578" fill="#fff" r="5"/></g><g><path d="m41.492 52.578c4.42 0 8-3.58 8-8 0-4.279-3.359-7.779-7.59-7.99h14.57v4.99c0 6.07-4.941 11-11 11z" fill="#ccd1d9"/></g><g><path d="m41.482 39.578c-2.76 0-5 2.24-5 5s2.24 5 5 5 5-2.24 5-5-2.24-5-5-5zm-.4-2.99h.82c4.23.211 7.59 3.711 7.59 7.99 0 4.42-3.58 8-8 8-4.43 0-8.01-3.58-8.01-8 0-4.279 3.36-7.779 7.6-7.99z" fill="#e6e9ed"/></g><g><path d="m41.492 52.578h-16.02c4.42 0 8-3.58 8-8h.01c0 4.42 3.581 8 8.01 8z" fill="#ccd1d9"/></g><g><path d="m25.463 39.578c-2.76 0-5 2.24-5 5s2.24 5 5 5c2.77 0 5-2.24 5-5s-2.231-5-5-5zm-.4-2.99h.82c4.229.211 7.59 3.711 7.59 7.99 0 4.42-3.58 8-8 8-.141 0-.281 0-.41-.01-4.23-.209-7.6-3.709-7.6-7.99 0-4.279 3.369-7.779 7.6-7.99z" fill="#e6e9ed"/></g><g><path d="m25.463 39.578c2.77 0 5 2.24 5 5s-2.23 5-5 5c-2.76 0-5-2.24-5-5s2.24-5 5-5z" fill="#fff"/></g><g><path d="m8.521 36.588h16.541c-4.23.211-7.6 3.711-7.6 7.99 0 4.281 3.369 7.781 7.6 7.99-8.839-.209-16.019-7.22-16.541-15.98z" fill="#ffce54"/></g></g><g><g><path d="m6.473 57.422c-.553 0-1-.447-1-1v-4.012c0-.553.447-1 1-1s1 .447 1 1v4.012c0 .553-.448 1-1 1z" fill="#e6e9ed"/></g><g><path d="m7.473 55.416h-2c-.553 0-1-.447-1-1s.447-1 1-1h2c.553 0 1 .447 1 1s-.448 1-1 1z" fill="#e6e9ed"/></g></g><g><g><path d="m53.475 63.422c-.553 0-1-.447-1-1v-4.012c0-.553.447-1 1-1s1 .447 1 1v4.012c0 .553-.448 1-1 1z" fill="#e6e9ed"/></g><g><path d="m54.475 61.416h-2c-.553 0-1-.447-1-1s.447-1 1-1h2c.553 0 1 .447 1 1s-.448 1-1 1z" fill="#e6e9ed"/></g></g><g><path d="m19.496 61.414c-.553 0-1.004-.447-1.004-1s.441-1 .994-1h.01c.553 0 1 .447 1 1s-.447 1-1 1z" fill="#e6e9ed"/></g><g><path d="m36.512 63.416c-.553 0-1.004-.447-1.004-1s.441-1 .994-1h.01c.553 0 1 .447 1 1s-.448 1-1 1z" fill="#e6e9ed"/></g><g><path d="m1.502 43.438c-.553 0-1.004-.447-1.004-1s.441-1 .994-1h.01c.553 0 1 .447 1 1s-.447 1-1 1z" fill="#e6e9ed"/></g><g><path d="m62.502 49.424c-.553 0-1.004-.447-1.004-1s.441-1 .994-1h.01c.553 0 1 .447 1 1s-.447 1-1 1z" fill="#e6e9ed"/></g><g><g><path d="m16.502 15.414c-.553 0-1.004-.447-1.004-1s.441-1 .994-1h.01c.553 0 1 .447 1 1s-.447 1-1 1z" fill="#f6bb42"/></g><g><path d="m20.502 19.414c-.553 0-1.004-.447-1.004-1s.441-1 .994-1h.01c.553 0 1 .447 1 1s-.447 1-1 1z" fill="#f6bb42"/></g><g><path d="m16.502 7.414c-.553 0-1.004-.447-1.004-1s.441-1 .994-1h.01c.553 0 1 .447 1 1s-.447 1-1 1z" fill="#f6bb42"/></g><g><path d="m20.502 11.414c-.553 0-1.004-.447-1.004-1s.441-1 .994-1h.01c.553 0 1 .447 1 1s-.447 1-1 1z" fill="#f6bb42"/></g><g><path d="m24.502 15.414c-.553 0-1.004-.447-1.004-1s.441-1 .994-1h.01c.553 0 1 .447 1 1s-.447 1-1 1z" fill="#f6bb42"/></g><g><path d="m28.502 19.414c-.553 0-1.004-.447-1.004-1s.441-1 .994-1h.01c.553 0 1 .447 1 1s-.447 1-1 1z" fill="#f6bb42"/></g><g><path d="m20.502 3.414c-.553 0-1.004-.447-1.004-1s.441-1 .994-1h.01c.553 0 1 .447 1 1s-.447 1-1 1z" fill="#f6bb42"/></g><g><path d="m24.502 7.414c-.553 0-1.004-.447-1.004-1s.441-1 .994-1h.01c.553 0 1 .447 1 1s-.447 1-1 1z" fill="#f6bb42"/></g><g><path d="m28.502 11.414c-.553 0-1.004-.447-1.004-1s.441-1 .994-1h.01c.553 0 1 .447 1 1s-.447 1-1 1z" fill="#f6bb42"/></g><g><path d="m32.502 15.414c-.553 0-1.004-.447-1.004-1s.441-1 .994-1h.01c.553 0 1 .447 1 1s-.447 1-1 1z" fill="#f6bb42"/></g><g><path d="m36.502 19.414c-.553 0-1.004-.447-1.004-1s.441-1 .994-1h.01c.553 0 1 .447 1 1s-.447 1-1 1z" fill="#f6bb42"/></g><g><path d="m28.502 3.414c-.553 0-1.004-.447-1.004-1s.441-1 .994-1h.01c.553 0 1 .447 1 1s-.447 1-1 1z" fill="#f6bb42"/></g><g><path d="m32.502 7.414c-.553 0-1.004-.447-1.004-1s.441-1 .994-1h.01c.553 0 1 .447 1 1s-.447 1-1 1z" fill="#f6bb42"/></g><g><path d="m36.502 11.414c-.553 0-1.004-.447-1.004-1s.441-1 .994-1h.01c.553 0 1 .447 1 1s-.447 1-1 1z" fill="#f6bb42"/></g><g><path d="m40.502 15.414c-.553 0-1.004-.447-1.004-1s.441-1 .994-1h.01c.553 0 1 .447 1 1s-.447 1-1 1z" fill="#f6bb42"/></g><g><path d="m44.502 19.414c-.553 0-1.004-.447-1.004-1s.441-1 .994-1h.01c.553 0 1 .447 1 1s-.447 1-1 1z" fill="#f6bb42"/></g><g><path d="m36.502 3.414c-.553 0-1.004-.447-1.004-1s.441-1 .994-1h.01c.553 0 1 .447 1 1s-.447 1-1 1z" fill="#f6bb42"/></g><g><path d="m40.502 7.414c-.553 0-1.004-.447-1.004-1s.441-1 .994-1h.01c.553 0 1 .447 1 1s-.447 1-1 1z" fill="#f6bb42"/></g><g><path d="m44.502 11.414c-.553 0-1.004-.447-1.004-1s.441-1 .994-1h.01c.553 0 1 .447 1 1s-.447 1-1 1z" fill="#f6bb42"/></g><g><path d="m48.502 15.414c-.553 0-1.004-.447-1.004-1s.441-1 .994-1h.01c.553 0 1 .447 1 1s-.447 1-1 1z" fill="#f6bb42"/></g><g><path d="m44.502 3.414c-.553 0-1.004-.447-1.004-1s.441-1 .994-1h.01c.553 0 1 .447 1 1s-.447 1-1 1z" fill="#f6bb42"/></g><g><path d="m48.502 7.414c-.553 0-1.004-.447-1.004-1s.441-1 .994-1h.01c.553 0 1 .447 1 1s-.447 1-1 1z" fill="#f6bb42"/></g></g></g></svg>