<svg id="icons" enable-background="new 0 0 64 64" height="98.967px" viewBox="0 0 64 64" width="98.967px" xmlns="http://www.w3.org/2000/svg"><g><path d="m23.52 38h-.01c-3.871-.01-6.99-3.13-7-6.99h-10v27.98c0 .56.459 1.02 1.029 1.02h17.971c.549 0 1-.45 1-1h.01v-18c0-1.66-1.34-3-3-3.01z" fill="#e6e9ed"/><g><path d="m22.496 13.991c-3.023 0-5.584-2.26-5.953-5.256l-.016-.145c-.055-.549.348-1.038.898-1.092.539-.049 1.039.348 1.092.898l.008.067c.248 2.021 1.955 3.526 3.971 3.526.553 0 1 .447 1 1s-.447 1.002-1 1.002z" fill="#656d78"/></g><g><path d="m55.5 34.01h4v13.99h-4z" fill="#edab37"/></g><g><path d="m59.5 48c1.109 0 2 .89 2 2v7.01c0 3.311-2.68 6-6 6h-4c3.32 0 6-2.689 6-6v-7.01c0-1.11-.891-2-2-2z" fill="#f6bb42"/></g><g><path d="m55.5 34.01c1.109 0 2-.89 2-2v-7.01c0-3.31-2.68-6-6-6h4c3.32 0 6 2.69 6 6v7.01c0 1.11-.891 2-2 2z" fill="#f6bb42"/></g><g><path d="m41.5 26.01c1.109 0 2 .891 2 2 0 1.101-.891 1.99-2 1.99-1.1 0-1.99-.89-1.99-1.99 0-1.11.89-2 1.99-2z" fill="#f6bb42"/></g><g><circle cx="49" cy="55.5" fill="#f6bb42" r="2.5"/></g><g><path d="m57.5 50v7.01c0 3.311-2.68 6-6 6h-12c-3.311 0-6-2.689-6-6v-7.01c0-1.11.9-2 2-2h.01v-13.99c-1.109 0-2-.89-2-2v-7.01c0-3.31 2.68-6 6-6h11.99c3.32 0 6 2.69 6 6v7.01c0 1.11-.891 2-2 2v13.99c1.109 0 2 .89 2 2zm-6 5.5c0-1.38-1.121-2.5-2.5-2.5-1.381 0-2.5 1.12-2.5 2.5s1.119 2.5 2.5 2.5c1.379 0 2.5-1.12 2.5-2.5zm-8-27.49c0-1.109-.891-2-2-2-1.1 0-1.99.891-1.99 2 0 1.1.89 1.99 1.99 1.99 1.109 0 2-.89 2-1.99z" fill="#ffce54"/></g><g><path d="m21.49.99v6c-1.521 0-2.91.56-3.971 1.5-1.24 1.09-2.029 2.7-2.029 4.5h-9.99v-12z" fill="#ccd1d9"/></g><g><path d="m5.5 12.99h9.99v3h-9.99z" fill="#e6e9ed"/></g><g><path d="m19.51 20.01v3h-16v-5.01c0-1.1.891-1.98 1.99-1.99v-.02h9.99 2v.02c1.109 0 2 .891 2 1.99z" fill="#967adc"/></g><g><path d="m26.52 59.01v-18c0-1.66-1.34-3-3-3.01h-.01c-3.871-.01-6.99-3.13-7-6.99h-10v27.98c0 .56.459 1.02 1.029 1.02h17.971c.549 0 1-.45 1-1zm2.98-18v18c0 2.21-1.791 3.99-3.99 3.99v.01h-17.971c-.01 0-.01 0-.02 0-2.22-.01-4.009-1.81-4.009-4.02v-35.98h16v7.99c0 2.21 1.779 3.99 4 4h.01c3.32.01 6 2.69 6 6.01z" fill="#ac92ec"/></g><g><path d="m11.508 40.01c1.111 0 2 .9 2 2 0 1.11-.889 2-2 2-1.1 0-2-.89-2-2 0-1.1.9-2 2-2z" fill="#ac92ec"/></g><g><path d="m21.498 2.993h-17.998c-.553 0-1-.447-1-1s.447-1 1-1h17.998c.553 0 1 .447 1 1s-.447 1-1 1z" fill="#ccd1d9"/></g><g><path d="m22.514 49.007h-12c-.553 0-1-.447-1-1s.447-1 1-1h12c.553 0 1 .447 1 1s-.448 1-1 1z" fill="#ccd1d9"/></g><g><path d="m22.514 52.007h-12c-.553 0-1-.447-1-1s.447-1 1-1h12c.553 0 1 .447 1 1s-.448 1-1 1z" fill="#ccd1d9"/></g><g><path d="m16.508 55.007h-5.994c-.553 0-1-.447-1-1s.447-1 1-1h5.994c.553 0 1 .447 1 1s-.447 1-1 1z" fill="#ccd1d9"/></g><g><path d="m41.541 51.999c-.553 0-1.006-.447-1.006-1s.443-1 .994-1h.012c.551 0 1 .447 1 1s-.449 1-1 1z" fill="#f6bb42"/></g><g><path d="m49.549 44.992c-.553 0-1.006-.447-1.006-1s.443-1 .994-1h.012c.551 0 1 .447 1 1s-.449 1-1 1z" fill="#f6bb42"/></g><g><path d="m42.543 38.986c-.553 0-1.006-.447-1.006-1s.443-1 .994-1h.012c.551 0 1 .447 1 1s-.449 1-1 1z" fill="#f6bb42"/></g><g><path d="m51.551 29.978c-.553 0-1.006-.447-1.006-1s.443-1 .994-1h.012c.551 0 1 .447 1 1s-.449 1-1 1z" fill="#f6bb42"/></g><path d="m24.49.99h-3.002v6h3.002c.549 0 1-.45 1-1v-4c0-.55-.451-1-1-1z" fill="#e6e9ed"/></g></svg>