<svg id="icons" enable-background="new 0 0 64 64" height="98.967px" viewBox="0 0 64 64" width="98.967px" xmlns="http://www.w3.org/2000/svg"><g><g><g><path d="m63 24v16c0 1.1-.9 2-2 2h-12c-1.1 0-2-.9-2-2v-16-4c0-1.1.9-2 2-2h12c1.1 0 2 .9 2 2z" fill="#ffce54"/></g><g><path d="m63 44c0 1.1-.9 2-2 2h-12c-1.1 0-2-.9-2-2v-4c0 1.1.9 2 2 2h12c1.1 0 2-.9 2-2z" fill="#f6bb42"/></g><g><path d="m43 29v6c0 11.6-9.4 21-21 21s-21-9.4-21-21v-6c0 11.6 9.4 21 21 21s21-9.4 21-21z" fill="#545c66"/></g><g><path d="m22 18v9c-.55 0-1.05.22-1.41.59l-6.37-6.37c2-1.99 4.74-3.22 7.78-3.22z" fill="#434a54"/></g><g><path d="m14.22 21.22 6.37 6.37c-.37.36-.59.86-.59 1.41h-9c0-3.04 1.23-5.78 3.22-7.78z" fill="#434a54"/></g><g><path d="m20.59 30.41v.01l-6.37 6.36c-1.99-2-3.22-4.74-3.22-7.78h9c0 .56.22 1.05.59 1.41z" fill="#434a54"/></g><g><path d="m29.78 21.22-6.36 6.37h-.01c-.36-.37-.85-.59-1.41-.59v-9c3.04 0 5.78 1.23 7.78 3.22z" fill="#434a54"/></g><g><path d="m33 29c0 3.04-1.23 5.78-3.22 7.78l-6.36-6.36c.36-.36.58-.86.58-1.42z" fill="#434a54"/></g><g><path d="m23.42 30.42 6.36 6.36c-2 1.99-4.74 3.22-7.78 3.22v-9c.56 0 1.06-.22 1.42-.58z" fill="#434a54"/></g><g><path d="m22 31v9c-3.04 0-5.78-1.23-7.78-3.22l6.37-6.36c.36.36.86.58 1.41.58z" fill="#434a54"/></g><g><path d="m43 29c0 11.6-9.4 21-21 21s-21-9.4-21-21 9.4-21 21-21 21 9.4 21 21zm-13.22 7.78c1.99-2 3.22-4.74 3.22-7.78s-1.23-5.78-3.22-7.78c-2-1.99-4.74-3.22-7.78-3.22s-5.78 1.23-7.78 3.22c-1.99 2-3.22 4.74-3.22 7.78s1.23 5.78 3.22 7.78c2 1.99 4.74 3.22 7.78 3.22s5.78-1.23 7.78-3.22z" fill="#656d78"/></g><g><path d="m33 29h-9c0-.55-.22-1.05-.58-1.41l6.36-6.37c1.99 2 3.22 4.74 3.22 7.78z" fill="#434a54"/></g><g><path d="m23.42 30.42c-.36.36-.86.58-1.42.58-.55 0-1.05-.22-1.41-.58v-.01c-.37-.36-.59-.85-.59-1.41 0-.55.22-1.05.59-1.41.36-.37.86-.59 1.41-.59.56 0 1.05.22 1.41.59h.01c.36.36.58.86.58 1.41 0 .56-.22 1.06-.58 1.42z" fill="#e6e9ed"/></g></g><g><g><path d="m49.028 37c-.553 0-1.005-.447-1.005-1s.442-1 .994-1h.011c.552 0 1 .447 1 1s-.448 1-1 1z" fill="#f6bb42"/></g><g><path d="m52.028 40c-.553 0-1.005-.447-1.005-1s.442-1 .994-1h.011c.552 0 1 .447 1 1s-.448 1-1 1z" fill="#f6bb42"/></g><g><path d="m49.028 31c-.553 0-1.005-.447-1.005-1s.442-1 .994-1h.011c.552 0 1 .447 1 1s-.448 1-1 1z" fill="#f6bb42"/></g><g><path d="m52.028 34c-.553 0-1.005-.447-1.005-1s.442-1 .994-1h.011c.552 0 1 .447 1 1s-.448 1-1 1z" fill="#f6bb42"/></g><g><path d="m55.028 37c-.553 0-1.005-.447-1.005-1s.442-1 .994-1h.011c.552 0 1 .447 1 1s-.448 1-1 1z" fill="#f6bb42"/></g><g><path d="m58.028 40c-.553 0-1.005-.447-1.005-1s.442-1 .994-1h.011c.552 0 1 .447 1 1s-.448 1-1 1z" fill="#f6bb42"/></g><g><path d="m49.028 25c-.553 0-1.005-.447-1.005-1s.442-1 .994-1h.011c.552 0 1 .447 1 1s-.448 1-1 1z" fill="#f6bb42"/></g><g><path d="m52.028 28c-.553 0-1.005-.447-1.005-1s.442-1 .994-1h.011c.552 0 1 .447 1 1s-.448 1-1 1z" fill="#f6bb42"/></g><g><path d="m55.028 31c-.553 0-1.005-.447-1.005-1s.442-1 .994-1h.011c.552 0 1 .447 1 1s-.448 1-1 1z" fill="#f6bb42"/></g><g><path d="m58.028 34c-.553 0-1.005-.447-1.005-1s.442-1 .994-1h.011c.552 0 1 .447 1 1s-.448 1-1 1z" fill="#f6bb42"/></g><g><path d="m61.028 37c-.553 0-1.005-.447-1.005-1s.442-1 .994-1h.011c.552 0 1 .447 1 1s-.448 1-1 1z" fill="#f6bb42"/></g><g><path d="m52.028 22c-.553 0-1.005-.447-1.005-1s.442-1 .994-1h.011c.552 0 1 .447 1 1s-.448 1-1 1z" fill="#f6bb42"/></g><g><path d="m55.028 25c-.553 0-1.005-.447-1.005-1s.442-1 .994-1h.011c.552 0 1 .447 1 1s-.448 1-1 1z" fill="#f6bb42"/></g><g><path d="m58.028 28c-.553 0-1.005-.447-1.005-1s.442-1 .994-1h.011c.552 0 1 .447 1 1s-.448 1-1 1z" fill="#f6bb42"/></g><g><path d="m61.028 31c-.553 0-1.005-.447-1.005-1s.442-1 .994-1h.011c.552 0 1 .447 1 1s-.448 1-1 1z" fill="#f6bb42"/></g><g><path d="m58.028 22c-.553 0-1.005-.447-1.005-1s.442-1 .994-1h.011c.552 0 1 .447 1 1s-.448 1-1 1z" fill="#f6bb42"/></g><g><path d="m61.028 25c-.553 0-1.005-.447-1.005-1s.442-1 .994-1h.011c.552 0 1 .447 1 1s-.448 1-1 1z" fill="#f6bb42"/></g></g><g><path d="m6 30c-.553 0-1-.447-1-1 0-9.374 7.626-17 17-17 .553 0 1 .447 1 1s-.447 1-1 1c-8.271 0-15 6.729-15 15 0 .553-.447 1-1 1z" fill="#545c66"/></g><g><path d="m22 46c-.553 0-1-.447-1-1s.447-1 1-1c8.271 0 15-6.729 15-15 0-.553.447-1 1-1s1 .447 1 1c0 9.374-7.626 17-17 17z" fill="#545c66"/></g><g><path d="m22 28c-.553 0-1-.447-1-1v-9c0-.553.447-1 1-1s1 .447 1 1v9c0 .553-.447 1-1 1z" fill="#ccd1d9"/></g><g><path d="m22 41c-.553 0-1-.447-1-1v-9c0-.553.447-1 1-1s1 .447 1 1v9c0 .553-.447 1-1 1z" fill="#ccd1d9"/></g><g><path d="m20.586 28.586c-.256 0-.512-.098-.707-.293l-6.363-6.363c-.391-.391-.391-1.023 0-1.414s1.023-.391 1.414 0l6.363 6.363c.391.391.391 1.023 0 1.414-.195.195-.451.293-.707.293z" fill="#ccd1d9"/></g><g><path d="m29.779 37.779c-.256 0-.512-.098-.707-.293l-6.365-6.365c-.391-.391-.391-1.023 0-1.414s1.023-.391 1.414 0l6.365 6.365c.391.391.391 1.023 0 1.414-.195.196-.451.293-.707.293z" fill="#ccd1d9"/></g><g><path d="m20 30h-8.998c-.553 0-1-.447-1-1s.447-1 1-1h8.998c.553 0 1 .447 1 1s-.447 1-1 1z" fill="#ccd1d9"/></g><g><path d="m33 30h-9c-.553 0-1-.447-1-1s.447-1 1-1h9c.553 0 1 .447 1 1s-.447 1-1 1z" fill="#ccd1d9"/></g><g><path d="m14.225 37.777c-.256 0-.512-.098-.707-.293-.391-.391-.391-1.023 0-1.414l6.361-6.363c.391-.391 1.023-.391 1.414 0s.391 1.023 0 1.414l-6.361 6.363c-.196.196-.452.293-.707.293z" fill="#ccd1d9"/></g><g><path d="m23.414 28.586c-.256 0-.512-.098-.707-.293-.391-.391-.391-1.023 0-1.414l6.365-6.363c.391-.391 1.023-.391 1.414 0s.391 1.023 0 1.414l-6.365 6.363c-.195.195-.451.293-.707.293z" fill="#ccd1d9"/></g><g><path d="m22 41c-6.617 0-12-5.383-12-12s5.383-12 12-12 12 5.383 12 12-5.383 12-12 12zm0-22c-5.514 0-10 4.486-10 10s4.486 10 10 10 10-4.486 10-10-4.486-10-10-10z" fill="#e6e9ed"/></g><g><path d="m22 31.5c-1.379 0-2.5-1.121-2.5-2.5s1.121-2.5 2.5-2.5 2.5 1.121 2.5 2.5-1.121 2.5-2.5 2.5zm0-3.333c-.46 0-.833.373-.833.833s.373.833.833.833.833-.373.833-.833-.373-.833-.833-.833z" fill="#e6e9ed"/></g></g></svg>