<svg id="icons" enable-background="new 0 0 64 64" height="512" viewBox="0 0 64 64" width="512" xmlns="http://www.w3.org/2000/svg"><g><path d="m36.594 41.5c-.256 0-.512-.098-.707-.293l-23-23c-.391-.391-.391-1.023 0-1.414s1.023-.391 1.414 0l23 23c.391.391.391 1.023 0 1.414-.196.195-.451.293-.707.293z" fill="#ccd1d9"/><path d="m36.594 41.5c-.256 0-.512-.098-.707-.293-.391-.391-.391-1.023 0-1.414l22.812-22.813c.391-.391 1.023-.391 1.414 0s.391 1.023 0 1.414l-22.812 22.813c-.196.195-.451.293-.707.293z" fill="#ccd1d9"/><g><path d="m49.509 9.493c0 1.109-.899 2-2 2-1.109 0-2-.891-2-2 0-1.101 2-3 2-3s2 1.9 2 3z" fill="#5d9cec"/></g><g><path d="m15.509 9.493c0 1.109-.899 2-2 2-1.109 0-2-.891-2-2 0-1.101 2-3 2-3s2 1.9 2 3z" fill="#5d9cec"/></g><g><path d="m34.509 17.503c0 2.21-1.79 4-4 4s-4-1.79-4-4 4-6 4-6 4 3.79 4 6z" fill="#5d9cec"/></g><g><path d="m63.499 54.504v4h-62v-17h23.01 12.091 13.899c7.19 0 13 5.809 13 13z" fill="#ed5565"/></g><path d="m24.5 41.5c-.256 0-.512-.098-.707-.293l-23-23c-.391-.391-.391-1.023 0-1.414s1.023-.391 1.414 0l23 23c.391.391.391 1.023 0 1.414-.195.195-.451.293-.707.293z" fill="#e6e9ed"/><path d="m24.5 41.5c-.256 0-.512-.098-.707-.293-.391-.391-.391-1.023 0-1.414l22.812-22.813c.391-.391 1.023-.391 1.414 0s.391 1.023 0 1.414l-22.812 22.813c-.195.195-.451.293-.707.293z" fill="#e6e9ed"/><g fill="#5d9cec"><path d="m20.519 16.504c-.553 0-1.005-.447-1.005-1s.442-1 .994-1h.011c.552 0 1 .447 1 1s-.449 1-1 1z"/><path d="m25.531 7.496c-.553 0-1.005-.447-1.005-1s.442-1 .994-1h.011c.552 0 1 .447 1 1s-.448 1-1 1z"/><path d="m40.534 18.506c-.553 0-1.005-.447-1.005-1s.442-1 .994-1h.011c.552 0 1 .447 1 1s-.448 1-1 1z"/><path d="m30.531 27.5c-.553 0-1.005-.447-1.005-1s.442-1 .994-1h.011c.552 0 1 .447 1 1s-.448 1-1 1z"/><path d="m38.531 8.5c-.553 0-1.005-.447-1.005-1s.442-1 .994-1h.011c.552 0 1 .447 1 1s-.448 1-1 1z"/></g></g></svg>